<?xml version="1.0" encoding="UTF-8"?>
<!DOCTYPE svg PUBLIC "-//W3C//DTD SVG 1.1//EN" "http://www.w3.org/Graphics/SVG/1.1/DTD/svg11.dtd">
<!-- Creator: CorelDRAW 2020 (64 Bit) -->
<svg xmlns="http://www.w3.org/2000/svg" xml:space="preserve" width="151.701mm" height="178.532mm" version="1.1" style="shape-rendering:geometricPrecision; text-rendering:geometricPrecision; image-rendering:optimizeQuality; fill-rule:evenodd; clip-rule:evenodd"
viewBox="0 0 1878.84 2211.14"
 xmlns:xlink="http://www.w3.org/1999/xlink"
 xmlns:xodm="http://www.corel.com/coreldraw/odm/2003">
 <defs>
  <style type="text/css">
   <![CDATA[
    .fil0 {fill:#B6893D}
   ]]>
  </style>
 </defs>
 <g id="Camada_x0020_1">
  <metadata id="CorelCorpID_0Corel-Layer"/>
  <path class="fil0" d="M876.14 1172.07c5.62,-16.02 39.42,-63.7 51.09,-80.79l256.4 -376.97c39.8,-57.74 68.35,-134.09 136.45,-90.56 61.11,39.05 136.39,74.48 104.9,135.11l-307.04 453.29c-35.24,51.22 -71.1,102.35 -104.24,153.51 -16.26,25.11 -31.14,49.49 -51.41,75.31 -76.72,97.75 -166.13,-24.58 -226.18,-84.63 -36.07,-36.07 -242.56,-231.28 -248.2,-263.19 -7.03,-39.79 27.21,-59.99 44.59,-77.52 58.31,-58.83 78.78,-102.99 149.03,-32.88 35,34.92 174.52,179.57 194.6,189.33zm38.71 -1169.97c-257.7,69.04 -535.93,338.15 -768.4,382.57 -37.12,7.09 -77.16,4.25 -103.53,23.31 -62.16,44.94 -40.27,121.43 -34.33,206.94 10.58,152.12 35.89,300.39 68.16,444.08 43.89,195.47 117.01,381.95 214.54,549.96 17,29.29 31.3,52.84 48.83,77.75 85.97,122.16 76.85,105.85 169.54,215.14l133.59 124.06c46.55,38.72 93.88,73.42 147.4,110.43 50.38,34.83 122.05,87.01 174.27,72.23 40.01,-11.32 190.68,-116.26 230.75,-149.61 100.5,-83.64 109,-85.61 198.61,-186.06 11.02,-12.35 19.3,-17.37 30.08,-30.97l85.92 -110.64c237.65,-342.03 335.1,-733.39 364.87,-1168.76 3.62,-53 21.69,-152.64 -75.03,-169.64 -40.7,-7.15 -68.01,-6.83 -108.33,-18.52 -127.92,-37.09 -312.51,-158.64 -417.06,-225.16 -54.93,-34.95 -284.11,-167.41 -359.87,-147.11z"/>
 </g>
</svg>
