<?xml version="1.0" encoding="UTF-8"?>
<!DOCTYPE svg PUBLIC "-//W3C//DTD SVG 1.1//EN" "http://www.w3.org/Graphics/SVG/1.1/DTD/svg11.dtd">
<!-- Creator: CorelDRAW 2020 (64 Bit) -->
<svg xmlns="http://www.w3.org/2000/svg" xml:space="preserve" width="158.066mm" height="170.095mm" version="1.1" style="shape-rendering:geometricPrecision; text-rendering:geometricPrecision; image-rendering:optimizeQuality; fill-rule:evenodd; clip-rule:evenodd"
viewBox="0 0 2980.35 3207.15"
 xmlns:xlink="http://www.w3.org/1999/xlink"
 xmlns:xodm="http://www.corel.com/coreldraw/odm/2003">
 <defs>
  <style type="text/css">
   <![CDATA[
    .fil0 {fill:#B6893D}
    .fil1 {fill:#E1BD6A}
   ]]>
  </style>
 </defs>
 <g id="Camada_x0020_1">
  <metadata id="CorelCorpID_0Corel-Layer"/>
  <path class="fil0" d="M2531.49 1952.51c47.6,-90.91 -36.74,-131 -137.85,-247.25 -151.84,-174.59 -104.25,-43.63 -104.82,-292.35 -0.56,-242.02 -62.07,-88.98 175.18,-361.86 113.43,-130.47 126.63,-62.43 -37.62,-356.14 -29.09,-52.02 -79.5,-129.17 -99.8,-182.85 -57.37,12.47 -111.62,26.14 -169.02,39.94 -22.77,5.47 -60.85,16.25 -83.58,17.22 -47.94,2.05 -51.73,-19.21 -81.5,-24.02 -43.21,-14.76 -76.89,23.53 -120.27,5.61 -11,-4.55 -152.31,-119.36 -245.4,-167.22 -40.15,-20.64 -55.98,-22.78 -70.64,-68.91l-92.68 -311.95c-64.74,0.06 -329.84,-8.36 -368.57,4.19 -15.86,13.72 -6.05,-0.84 -15.72,25.37l-75.03 250.86c-53.5,181.9 -70.18,92.1 -300.87,257.73 -51.53,37 -79.08,30.08 -146.46,14.68 -54.7,-12.51 -264.01,-69.33 -303.31,-64.88 -24.52,31.49 -246.27,414.81 -253.51,443.32l91.23 107.3c14.65,14.56 24.28,20.5 37.6,35.3 25.27,28.08 120.36,126.62 130.65,149.03 15.69,34.16 -0.75,201.63 2.78,257.94 9.47,151.34 4.76,119.91 -69.02,203.53 -211.67,239.91 -222.97,166.11 -143.93,307.21 57.15,102.01 154.82,258.53 201.78,349.34 42.98,4.41 246.71,-50.9 301.99,-63.66 144.85,-33.44 92.99,-9.3 257.44,83.93 148.19,84.02 146.12,31.47 191.62,180.7 20.41,66.93 62.78,234.63 89.62,282.86l127.63 4.61c-22.84,-134.53 -24.77,-208.35 17.86,-333.78 35.74,-105.15 85.94,-166.9 133.99,-236.12 -205.76,-21.56 -338.67,-26.19 -528.42,-170.07 -393.01,-298.02 -441.79,-864.04 -145.45,-1211.37 29.02,-34.02 257.69,-211.06 282.52,-222.65 326.04,-152.13 721.81,-92.73 970.74,166.63 197.77,206.05 303.99,527.46 206.68,837.51 -48.47,154.41 -68.72,145.87 -120.47,246.97 170.34,-0.94 305.94,-21.38 494.68,43.33z"/>
  <path class="fil1" d="M1325.55 2826.66c36.4,-52.53 234.75,-209.54 296.85,-249.03 239.56,-152.35 510.31,-253.64 802.04,-302.4 281.85,-47.12 283.97,-15.83 505.39,-20.44l-97.51 -63.47c-114.16,-65.78 -226.8,-117.94 -360.08,-151.9 -793.64,-202.22 -1303.05,455.29 -1146.69,787.25z"/>
  <path class="fil1" d="M1428.58 3013.63c79.87,25.95 111.94,50.95 212.95,56.51 279.29,15.39 455.88,-167.03 629.99,-309.05 134.39,-109.62 213.9,-190.98 363.11,-302.12 56.03,-41.73 105.9,-67.55 166.78,-104.83l-137.82 -0.5c-89.82,-12.29 -317.61,37.33 -407.38,59.73 -227.27,56.7 -460.12,158.64 -640.49,290.42 -107.05,78.21 -166.94,133.29 -244.19,225.69 12.67,31.31 34.23,64 57.05,84.15z"/>
  <path class="fil0" d="M1428.58 3013.63c12.69,30.3 72.1,81.66 100.01,102.23 137.87,101.62 327.29,117.84 484.08,51.41 178.63,-75.68 274.41,-205.52 398.02,-320.27 33.57,-31.16 41.08,-17.31 82.51,-10.56l94.26 -90.9c-29.19,-72.59 6.54,-86.68 45.65,-121.76 34.71,-31.13 69.55,-61.99 105.78,-93.82 43.79,-38.49 173.45,-136.28 241.46,-159.12 -21.29,-13.11 -41.22,-12.33 -71.51,-15.69 -48.47,-5.36 -217.91,-20.44 -245.25,-1.53l137.82 0.5c-60.88,37.28 -110.75,63.1 -166.78,104.83 -149.21,111.14 -228.72,192.5 -363.11,302.12 -174.11,142.02 -350.71,324.44 -629.99,309.05 -101.01,-5.57 -133.08,-30.56 -212.95,-56.51z"/>
  <path class="fil0" d="M2326.57 512.05c20.3,53.68 70.71,130.84 99.8,182.85 164.25,293.72 151.06,225.67 37.62,356.14 -237.25,272.88 -175.73,119.83 -175.18,361.86 0.57,248.72 -47.02,117.76 104.82,292.35 101.1,116.25 185.45,156.35 137.85,247.25l120.88 39.39c25.02,-61.44 76.02,-79.49 17.06,-129.87l-198.82 -213.76c-56.73,-54.1 -40.07,-76.39 -34.45,-163.15 14.81,-228.85 -56.63,-216.41 67.76,-334.1 10.66,-10.08 193.72,-205.55 194.53,-217.03 -6.36,-25.96 -231.42,-415.91 -253.6,-443.37 -27.84,-2.9 -90.92,14.21 -118.28,21.43z"/>
  <path class="fil0" d="M1072.81 1429.72c98.59,3.34 202.43,-29.01 205.23,89.27 2.25,95.31 -4.63,195.82 0.71,290.38l213.99 -246.33c38.33,-44.25 109.82,-120.75 132.54,-158.63 -242.43,0 -204.52,26.95 -204.52,-378.34l-264.12 300.61c-16.34,19.6 -76.96,86.06 -83.82,103.04z"/>
  <path class="fil0" d="M1992.47 545.19c-41.79,-75.81 -239,-106.51 -274.48,-186.58 -20.22,-45.64 -39.87,-128.46 -54.61,-177.82 -64.31,-215.3 -18.07,-172.72 -199.91,-178.08l92.68 311.95c14.66,46.13 30.5,48.27 70.64,68.91 93.1,47.86 234.4,162.68 245.4,167.22 43.38,17.92 77.06,-20.37 120.27,-5.61z"/>
 </g>
</svg>
