<?xml version="1.0" encoding="UTF-8"?>
<!DOCTYPE svg PUBLIC "-//W3C//DTD SVG 1.1//EN" "http://www.w3.org/Graphics/SVG/1.1/DTD/svg11.dtd">
<!-- Creator: CorelDRAW 2020 (64 Bit) -->
<svg xmlns="http://www.w3.org/2000/svg" xml:space="preserve" width="324.556mm" height="285.837mm" version="1.1" style="shape-rendering:geometricPrecision; text-rendering:geometricPrecision; image-rendering:optimizeQuality; fill-rule:evenodd; clip-rule:evenodd"
viewBox="0 0 32455.56 28583.72"
 xmlns:xlink="http://www.w3.org/1999/xlink"
 xmlns:xodm="http://www.corel.com/coreldraw/odm/2003">
 <defs>
  <style type="text/css">
   <![CDATA[
    .fil0 {fill:#B6893D}
    .fil1 {fill:#E1BD6A}
   ]]>
  </style>
 </defs>
 <g id="Camada_x0020_1">
  <metadata id="CorelCorpID_0Corel-Layer"/>
  <path class="fil0" d="M-0 21643.51l0 5619.73 23.75 56.91c122.79,335.65 200.16,642.73 541.08,908.67 691.37,539.33 1581.04,443.86 2176.04,-150.13l6120.22 -6121.33c237.59,-243.48 155.47,-172.84 593.32,-178.71 261.05,-3.49 515.48,-0.46 776.15,1.24 2040.36,13.29 4101.36,-40.39 6138.33,-3.43 498.02,9.03 7292.18,31.95 7617.08,-10.85 494.29,-65.12 724,-262.18 1001.02,-544.99 514.27,-525 1021.12,-1008.51 1535.33,-1533.62 1765.03,-1802.49 3573.42,-3551.86 5343.95,-5345.41 164.79,-166.94 227.54,-182.92 361.53,-413.34l204.67 -508.54c3.13,-8.41 8.73,-21.1 11.36,-27.92 2.65,-6.86 7.07,-19.01 11.73,-28l0 -469.17c-113.76,-219.94 -110.33,-798.2 -879.66,-1176.24 -548.39,-269.47 -1204.17,-175.18 -1621.25,147.48l-5652.47 5634.97c-165.07,101.8 -776.52,40.55 -1018.84,40.55l-7161.39 0c-344.54,0.04 -723.21,67.09 -772.6,-283.58 -53.03,-376.6 -8.16,-639.73 382.35,-649.7 1183.25,-30.19 4314.42,69.79 5101.01,-5.63 610.78,-58.57 1029.1,-387.34 1260.44,-813.69 495.69,-913.53 -3.13,-2284.17 -1455.31,-2311.19 -1369.72,-25.49 -2755.7,10.05 -4127.84,0.8l-6138.33 0.46c-674.58,1.44 -1417.04,-32.37 -2082.94,4.19 -716.53,39.33 -968.46,410.23 -1301.79,744.16l-6667.79 6667.36c-257.47,359.25 -228.78,561.83 -319.15,748.95z"/>
  <path class="fil1" d="M13176.68 11755.82l4858.25 0.15c-8.35,-2.12 -22.04,-17.39 -27.19,-9.02l-121.49 -31.8c-467.11,-63.45 -527.95,-10.55 -1158.22,-178.06 -449.82,-119.55 -691.23,-275.04 -1061.25,-444.25l381.62 -1375.21c381.47,133.85 679.03,448.91 1727.67,594.98 715.63,99.68 1334.16,60.68 1842.16,-423.45 407.54,-388.4 361.29,-1190.24 -182.99,-1587.45 -1221.16,-891.15 -3807.73,-1018.27 -3670.54,-3356.02 57.57,-981.18 630.51,-1628.62 1449.46,-2046.12 321.33,-163.82 569.7,-182.51 900.73,-298.59l4.83 -1425.06 1195.33 1.31 -0.03 1371.09c535.47,-11.49 1057.66,100.62 1549.17,267.99 180.98,61.62 281.81,144.56 461.49,179.88l-380.74 1359.13c-671.09,-220.51 -767.28,-414.71 -1788.94,-475.09 -755.4,-44.65 -1389.81,160.6 -1558.28,742.17 -461.61,1593.49 2743.17,1476.55 3741.59,3080.98 647.39,1040.32 422.35,2483.38 -583.22,3290.07 -396.28,317.91 -850.45,508.12 -1362.18,612.46 -191.31,39.01 -153.64,7.59 -170.96,149.91 1345.82,0 2461.86,-161.5 3543.63,727.44l284.32 244.66c52.24,43.54 6.67,10.59 56.05,45.59 378.42,-319.36 294.93,-204.69 714.06,-621.19l454.41 -533.24c69.95,-88.06 93.16,-108.45 157.63,-195.39 393.21,-530.26 681.5,-1066.14 956.73,-1760.23 533.22,-1344.7 603.72,-3220.41 121.1,-4650.54 -906.62,-2686.51 -3054.67,-4549.73 -5852.97,-4942.2 -2956.71,-414.68 -5718.4,1025.93 -7175.41,3494.46 -1344.55,2278 -1261.33,5105.6 129.25,7397.72 183.05,301.72 394.45,545.52 564.93,792.92z"/>
 </g>
</svg>
