<?xml version="1.0" encoding="UTF-8"?>
<!DOCTYPE svg PUBLIC "-//W3C//DTD SVG 1.1//EN" "http://www.w3.org/Graphics/SVG/1.1/DTD/svg11.dtd">
<!-- Creator: CorelDRAW 2020 (64 Bit) -->
<svg xmlns="http://www.w3.org/2000/svg" xml:space="preserve" width="150.438mm" height="150.453mm" version="1.1" style="shape-rendering:geometricPrecision; text-rendering:geometricPrecision; image-rendering:optimizeQuality; fill-rule:evenodd; clip-rule:evenodd"
viewBox="0 0 731.12 731.19"
 xmlns:xlink="http://www.w3.org/1999/xlink"
 xmlns:xodm="http://www.corel.com/coreldraw/odm/2003">
 <defs>
  <style type="text/css">
   <![CDATA[
    .fil0 {fill:#FEFEFE}
   ]]>
  </style>
 </defs>
 <g id="Camada_x0020_1">
  <metadata id="CorelCorpID_0Corel-Layer"/>
  <g id="_2096210980784">
   <path class="fil0" d="M73.71 365.46c0,-76.14 31.68,-152.83 81.85,-202.71 10.78,-10.71 24.97,-24.2 37.44,-32.85 45.96,-31.88 100.63,-55.86 158.42,-55.86 53.81,0 92.96,4.24 138.86,27.42 52.07,26.29 79.33,50.1 112.89,94.53 28.55,37.8 53.38,103.03 53.38,155.76 0,54.65 -5.01,93.15 -28.3,139.69 -16.72,33.41 -33.58,56.54 -59.55,82.74 -85.83,86.6 -230.24,107.94 -338.44,49.58 -34.53,-18.63 -18.35,-19.05 -59.52,-8.68 -23.15,5.83 -45.51,10.89 -67.89,16.1l22.54 -83.83c4.51,-14.52 -0.52,-16.68 -16.68,-43.74 -10.01,-16.77 -18.91,-41.38 -24.37,-61.34 -6.2,-22.64 -10.64,-48.56 -10.64,-76.79zm-73.71 -10.29c0,45.41 2.37,75.78 16.05,117.66 9.7,29.7 11.61,33.73 24.52,59.48 11.1,22.13 7.5,14.05 0.57,42.29 -5.18,21.1 -40.91,145.78 -41.14,156 10.05,-0.22 169.91,-38.91 181.06,-41.89 16.11,-4.3 9.18,-0.78 37.87,11.53 13.77,5.91 26.6,10.61 41.42,15.15 109.77,33.66 223,12.33 316.67,-52.33 21.1,-14.57 36.35,-29.01 54.28,-46.86 4.07,-4.05 4.52,-5.13 7.87,-9.28 2.95,-3.67 4.93,-5 8.11,-9.04 20.46,-26.03 38.71,-52.16 52.65,-84.49 44.37,-102.89 43.41,-225.1 -15.84,-328.02 -10.18,-17.67 -28.39,-45.79 -42.48,-60.37l-52.11 -49.03c-49.75,-39.87 -134.99,-75.3 -196.87,-75.7 -55.5,-0.35 -68.12,-2.19 -122.12,11.68 -55.41,14.23 -101.75,41.13 -144.15,76.99 -75.52,63.88 -126.34,166.5 -126.34,266.22z"/>
   <path class="fil0" d="M180 276.32c0,46.97 14.61,71.32 39.43,106.28 24.48,34.47 30.57,41.63 60.42,71.58 10.65,10.69 23.1,20.88 35.3,29.84l41.42 25.44c56.96,25.16 132.37,55.08 181.23,-2.18 8.23,-9.65 10.51,-21.52 12.82,-36.94 3.8,-25.47 -6.59,-23.1 -52.34,-46.01 -51.14,-25.61 -39.99,-16.55 -61.58,7.56 -21.81,24.35 -16.1,37.32 -70.84,4.87 -30.39,-18.01 -46.08,-32.96 -67.35,-59.51 -4.84,-6.04 -24.22,-31.47 -24.22,-39.2 0,-9.79 30.86,-29.06 30.86,-49.71 0,-4.47 -16.85,-43.81 -20.08,-51.92 -3.38,-8.5 -6.98,-17.9 -10.7,-25.3 -8.95,-17.78 -18.56,-15.35 -37.79,-15.35 -18.36,0 -31.56,18 -39.44,29.13 -8.31,11.73 -17.13,31.46 -17.13,51.44z"/>
  </g>
 </g>
</svg>
